<svg width="22" height="19" viewBox="0 0 22 19" fill="none" xmlns="http://www.w3.org/2000/svg">
<path d="M20.9304 17.1895L16.9122 13.6123C18.2086 12.1376 18.9121 10.3165 18.9095 8.44173C18.9095 6.77211 18.355 5.13999 17.3161 3.75176C16.2772 2.36352 14.8005 1.28153 13.0729 0.642592C11.3453 0.00365764 9.44425 -0.163517 7.61021 0.162209C5.77617 0.487935 4.0915 1.29193 2.76923 2.47253C1.44696 3.65312 0.546487 5.1573 0.181674 6.79483C-0.183139 8.43236 0.00409656 10.1297 0.719703 11.6722C1.43531 13.2148 2.64715 14.5332 4.20197 15.4608C5.75679 16.3884 7.58477 16.8835 9.45474 16.8835C11.5545 16.8858 13.5941 16.2577 15.2458 15.1001L19.2522 18.6879C19.3621 18.7868 19.4928 18.8653 19.6368 18.9188C19.7808 18.9724 19.9353 19 20.0913 19C20.2473 19 20.4018 18.9724 20.5458 18.9188C20.6898 18.8653 20.8205 18.7868 20.9304 18.6879C21.0412 18.5898 21.1291 18.4731 21.1891 18.3445C21.2491 18.2159 21.28 18.078 21.28 17.9387C21.28 17.7994 21.2491 17.6614 21.1891 17.5329C21.1291 17.4043 21.0412 17.2876 20.9304 17.1895ZM2.36369 8.44173C2.36369 7.18952 2.77957 5.96543 3.55874 4.92425C4.33792 3.88307 5.44539 3.07158 6.74111 2.59238C8.03683 2.11318 9.4626 1.98779 10.8381 2.23209C12.2137 2.47638 13.4772 3.07938 14.4689 3.96483C15.4606 4.85027 16.1359 5.9784 16.4095 7.20655C16.6831 8.4347 16.5427 9.70772 16.006 10.8646C15.4693 12.0215 14.5604 13.0103 13.3943 13.706C12.2282 14.4017 10.8572 14.773 9.45474 14.773C7.57407 14.773 5.77044 14.106 4.44061 12.9186C3.11078 11.7313 2.36369 10.1209 2.36369 8.44173Z" fill="white"/>
</svg>
