<svg width="18" height="19" viewBox="0 0 18 19" fill="none" xmlns="http://www.w3.org/2000/svg">
<path d="M11.9998 15C11.9998 15.7957 11.6837 16.5587 11.1211 17.1213C10.5585 17.6839 9.79545 18 8.99981 18C8.20416 18 7.44109 17.6839 6.87848 17.1213C6.31588 16.5587 5.9998 15.7957 5.9998 15M9.72081 1.00302L8.25481 1.00002C4.9108 0.992018 2.00781 3.70902 1.98481 7.00002V10.79C1.98481 11.58 1.88481 12.351 1.45381 13.008L1.1668 13.446C0.729805 14.11 1.19981 15 1.98481 15H16.0148C16.7998 15 17.2688 14.11 16.8328 13.446L16.5458 13.008C16.1158 12.351 16.0148 11.579 16.0148 10.789V7.00102C15.9748 3.70902 13.0648 1.01102 9.72081 1.00302V1.00302Z" stroke="black" stroke-width="2" stroke-linecap="round" stroke-linejoin="round"/>
</svg>
