<svg width="86" height="32" viewBox="0 0 86 32" fill="none" xmlns="http://www.w3.org/2000/svg">
<rect width="86" height="32" rx="15" fill="#D9D9D9"/>
<rect x="3.2453" y="3.36841" width="42.1887" height="25.2632" rx="12.6316" fill="white"/>
<g clip-path="url(#clip0_113_26)">
<path d="M24.3396 18.3158C23.5327 18.3158 22.7589 17.9831 22.1883 17.3909C21.6177 16.7987 21.2972 15.9955 21.2972 15.1579C21.2972 14.3204 21.6177 13.5172 22.1883 12.925C22.7589 12.3327 23.5327 12 24.3396 12C25.1466 12 25.9204 12.3327 26.491 12.925C27.0616 13.5172 27.3821 14.3204 27.3821 15.1579C27.3821 15.9955 27.0616 16.7987 26.491 17.3909C25.9204 17.9831 25.1466 18.3158 24.3396 18.3158ZM24.3396 19.3685C25.4155 19.3685 26.4473 18.9248 27.2081 18.1352C27.9689 17.3456 28.3963 16.2746 28.3963 15.1579C28.3963 14.0412 27.9689 12.9703 27.2081 12.1806C26.4473 11.391 25.4155 10.9474 24.3396 10.9474C23.2638 10.9474 22.232 11.391 21.4712 12.1806C20.7104 12.9703 20.283 14.0412 20.283 15.1579C20.283 16.2746 20.7104 17.3456 21.4712 18.1352C22.232 18.9248 23.2638 19.3685 24.3396 19.3685ZM24.3396 6.73688C24.4741 6.73688 24.6031 6.79233 24.6982 6.89103C24.7933 6.98974 24.8467 7.12361 24.8467 7.26319V9.36846C24.8467 9.50804 24.7933 9.64191 24.6982 9.74062C24.6031 9.83932 24.4741 9.89477 24.3396 9.89477C24.2052 9.89477 24.0762 9.83932 23.9811 9.74062C23.886 9.64191 23.8326 9.50804 23.8326 9.36846V7.26319C23.8326 7.12361 23.886 6.98974 23.9811 6.89103C24.0762 6.79233 24.2052 6.73688 24.3396 6.73688V6.73688ZM24.3396 20.4211C24.4741 20.4211 24.6031 20.4765 24.6982 20.5752C24.7933 20.6739 24.8467 20.8078 24.8467 20.9474V23.0527C24.8467 23.1923 24.7933 23.3261 24.6982 23.4248C24.6031 23.5235 24.4741 23.579 24.3396 23.579C24.2052 23.579 24.0762 23.5235 23.9811 23.4248C23.886 23.3261 23.8326 23.1923 23.8326 23.0527V20.9474C23.8326 20.8078 23.886 20.6739 23.9811 20.5752C24.0762 20.4765 24.2052 20.4211 24.3396 20.4211ZM32.4529 15.1579C32.4529 15.2975 32.3994 15.4314 32.3043 15.5301C32.2092 15.6288 32.0803 15.6842 31.9458 15.6842H29.9175C29.783 15.6842 29.654 15.6288 29.5589 15.5301C29.4638 15.4314 29.4104 15.2975 29.4104 15.1579C29.4104 15.0183 29.4638 14.8845 29.5589 14.7858C29.654 14.6871 29.783 14.6316 29.9175 14.6316H31.9458C32.0803 14.6316 32.2092 14.6871 32.3043 14.7858C32.3994 14.8845 32.4529 15.0183 32.4529 15.1579ZM19.2689 15.1579C19.2689 15.2975 19.2155 15.4314 19.1204 15.5301C19.0253 15.6288 18.8963 15.6842 18.7618 15.6842H16.7335C16.599 15.6842 16.4701 15.6288 16.375 15.5301C16.2799 15.4314 16.2264 15.2975 16.2264 15.1579C16.2264 15.0183 16.2799 14.8845 16.375 14.7858C16.4701 14.6871 16.599 14.6316 16.7335 14.6316H18.7618C18.8963 14.6316 19.0253 14.6871 19.1204 14.7858C19.2155 14.8845 19.2689 15.0183 19.2689 15.1579ZM30.0767 9.20319C30.1718 9.30189 30.2252 9.43574 30.2252 9.5753C30.2252 9.71486 30.1718 9.84871 30.0767 9.9474L28.6427 11.4369C28.5955 11.4857 28.5396 11.5245 28.478 11.5509C28.4164 11.5773 28.3505 11.5909 28.2838 11.5909C28.1493 11.5908 28.0203 11.5352 27.9252 11.4364C27.8781 11.3874 27.8408 11.3293 27.8153 11.2654C27.7899 11.2015 27.7768 11.133 27.7768 11.0639C27.7769 10.9242 27.8305 10.7903 27.9257 10.6916L29.3597 9.20319C29.4548 9.10452 29.5837 9.0491 29.7182 9.0491C29.8527 9.0491 29.9816 9.10452 30.0767 9.20319ZM20.7536 18.88C20.8487 18.9787 20.9021 19.1126 20.9021 19.2521C20.9021 19.3917 20.8487 19.5255 20.7536 19.6242L19.3196 21.1127C19.224 21.2085 19.0959 21.2616 18.9629 21.2604C18.83 21.2592 18.7028 21.2038 18.6088 21.1063C18.5148 21.0087 18.4614 20.8767 18.4603 20.7387C18.4591 20.6007 18.5102 20.4677 18.6026 20.3685L20.0366 18.88C20.1317 18.7814 20.2606 18.7259 20.3951 18.7259C20.5296 18.7259 20.6585 18.7814 20.7536 18.88ZM30.0767 21.1127C29.9816 21.2113 29.8527 21.2668 29.7182 21.2668C29.5837 21.2668 29.4548 21.2113 29.3597 21.1127L27.9257 19.6242C27.8333 19.525 27.7822 19.392 27.7834 19.254C27.7845 19.116 27.8378 18.984 27.9319 18.8864C28.0259 18.7889 28.1531 18.7335 28.286 18.7323C28.419 18.7311 28.5471 18.7842 28.6427 18.88L30.0767 20.3685C30.1718 20.4672 30.2252 20.601 30.2252 20.7406C30.2252 20.8801 30.1718 21.014 30.0767 21.1127ZM20.7536 11.4369C20.6585 11.5355 20.5296 11.591 20.3951 11.591C20.2606 11.591 20.1317 11.5355 20.0366 11.4369L18.6026 9.9474C18.5542 9.89885 18.5155 9.84078 18.489 9.77656C18.4624 9.71235 18.4484 9.64329 18.4478 9.5734C18.4472 9.50352 18.4601 9.43422 18.4856 9.36953C18.511 9.30485 18.5487 9.24609 18.5963 9.19667C18.6439 9.14725 18.7005 9.10817 18.7629 9.08171C18.8252 9.05524 18.8919 9.04193 18.9593 9.04254C19.0266 9.04314 19.0931 9.05766 19.155 9.08525C19.2169 9.11283 19.2728 9.15292 19.3196 9.20319L20.7536 10.6916C20.8008 10.7405 20.8383 10.7986 20.8639 10.8625C20.8894 10.9265 20.9026 10.995 20.9026 11.0642C20.9026 11.1335 20.8894 11.202 20.8639 11.266C20.8383 11.3299 20.8008 11.388 20.7536 11.4369Z" fill="black"/>
</g>
<path d="M69.2665 16.6645C69.2425 16.5839 69.1947 16.5133 69.1299 16.4625C69.065 16.4117 68.9864 16.3834 68.9052 16.3816H68.8989L68.7911 16.4014C67.8618 16.6679 66.8811 16.6739 65.9489 16.4186C65.0167 16.1634 64.1664 15.6562 63.4847 14.9486C62.803 14.241 62.3143 13.3584 62.0684 12.3909C61.8225 11.4233 61.8282 10.4053 62.085 9.44083C62.0923 9.41067 62.0966 9.3798 62.0977 9.34872C62.1044 9.26639 62.0851 9.18404 62.0428 9.11405C62.0005 9.04405 61.9375 8.99019 61.8632 8.96057C61.7825 8.92669 61.6932 8.92205 61.6096 8.94741C60.5649 9.25075 59.615 9.83278 58.8543 10.6356C58.0937 11.4384 57.5488 12.4339 57.274 13.5232C56.9992 14.6124 57.004 15.7574 57.288 16.8441C57.572 17.9308 58.1252 18.9214 58.8926 19.7173C59.66 20.5131 60.6148 21.0865 61.662 21.3804C62.7093 21.6742 63.8124 21.6783 64.8616 21.3921C65.9108 21.106 66.8695 20.5397 67.6423 19.7495C68.4151 18.9593 68.9751 17.9728 69.2665 16.8882C69.2856 16.815 69.2856 16.7378 69.2665 16.6645ZM63.283 20.8158C62.0212 20.8159 60.7985 20.3615 59.8234 19.5303C58.8482 18.6991 58.1811 17.5426 57.9358 16.2579C57.6905 14.9732 57.8822 13.6399 58.4782 12.4856C59.0742 11.3312 60.0376 10.4272 61.204 9.92767C61.0496 10.9343 61.1272 11.9646 61.4303 12.9342C61.7334 13.9037 62.2535 14.785 62.9479 15.5057C63.6423 16.2265 64.4914 16.7663 65.4255 17.0809C66.3596 17.3955 67.3522 17.476 68.3221 17.3158C67.9097 18.351 67.2108 19.236 66.3139 19.859C65.417 20.482 64.3622 20.815 63.283 20.8158Z" fill="black"/>
<defs>
<clipPath id="clip0_113_26">
<rect width="16.2264" height="16.8421" fill="white" transform="translate(16.2264 6.73688)"/>
</clipPath>
</defs>
</svg>
