<svg width="26" height="25" viewBox="0 0 26 25" fill="none" xmlns="http://www.w3.org/2000/svg">
<g clip-path="url(#clip0_20_44)">
<path fill-rule="evenodd" clip-rule="evenodd" d="M8.60699 18.0802C12.6855 17.5594 15.4936 17.6042 19.5775 18.0984C19.8732 18.1359 20.1435 18.2657 20.3383 18.4637C20.5332 18.6618 20.6394 18.9148 20.6375 19.176C20.6375 19.426 20.5392 19.6688 20.3616 19.8583C20.0521 20.1889 19.7351 20.5139 19.4107 20.8333H20.9842C21.0832 20.7302 21.1827 20.625 21.2834 20.5182C21.6368 20.1394 21.8296 19.6654 21.8291 19.1766C21.8291 18.1219 20.9485 17.213 19.7407 17.0672C15.5604 16.5615 12.6384 16.513 8.4348 17.05C7.21453 17.2057 6.33746 18.1287 6.33746 19.1906C6.33746 19.662 6.51323 20.1281 6.84631 20.5057C6.94462 20.6172 7.04174 20.7266 7.13826 20.8339H8.67373C8.37189 20.518 8.07749 20.1967 7.7907 19.8703C7.62027 19.6749 7.52833 19.4358 7.52913 19.1901C7.52913 18.6292 7.99031 18.1589 8.60699 18.0802ZM14.0833 13.0208C14.5528 13.0208 15.0177 12.94 15.4514 12.783C15.8851 12.6259 16.2792 12.3957 16.6112 12.1055C16.9432 11.8154 17.2065 11.4709 17.3862 11.0917C17.5658 10.7126 17.6583 10.3062 17.6583 9.89584C17.6583 9.48546 17.5658 9.0791 17.3862 8.69995C17.2065 8.32081 16.9432 7.97631 16.6112 7.68613C16.2792 7.39595 15.8851 7.16576 15.4514 7.00872C15.0177 6.85167 14.5528 6.77084 14.0833 6.77084C13.1352 6.77084 12.2258 7.10008 11.5554 7.68613C10.8849 8.27218 10.5083 9.06704 10.5083 9.89584C10.5083 10.7246 10.8849 11.5195 11.5554 12.1055C12.2258 12.6916 13.1352 13.0208 14.0833 13.0208ZM14.0833 14.0625C15.3475 14.0625 16.5599 13.6235 17.4538 12.8421C18.3478 12.0607 18.85 11.0009 18.85 9.89584C18.85 8.79077 18.3478 7.73096 17.4538 6.94956C16.5599 6.16816 15.3475 5.72917 14.0833 5.72917C12.8191 5.72917 11.6067 6.16816 10.7128 6.94956C9.81883 7.73096 9.31663 8.79077 9.31663 9.89584C9.31663 11.0009 9.81883 12.0607 10.7128 12.8421C11.6067 13.6235 12.8191 14.0625 14.0833 14.0625Z" fill="black"/>
<path fill-rule="evenodd" clip-rule="evenodd" d="M14.0833 21.875C20.0065 21.875 24.8083 17.6776 24.8083 12.5C24.8083 7.32239 20.0065 3.12499 14.0833 3.12499C8.16015 3.12499 3.35832 7.32239 3.35832 12.5C3.35832 17.6776 8.16015 21.875 14.0833 21.875ZM14.0833 22.9167C20.6649 22.9167 26 18.2531 26 12.5C26 6.74687 20.6649 2.08333 14.0833 2.08333C7.50175 2.08333 2.16666 6.74687 2.16666 12.5C2.16666 18.2531 7.50175 22.9167 14.0833 22.9167Z" fill="black"/>
</g>
<defs>
<clipPath id="clip0_20_44">
<rect width="26" height="25" fill="white"/>
</clipPath>
</defs>
</svg>
