<svg width="18" height="19" viewBox="0 0 18 19" fill="none" xmlns="http://www.w3.org/2000/svg">
<path d="M9.075 14.6854L9 14.7646L8.9175 14.6854C5.355 11.2733 3 9.01708 3 6.72917C3 5.14583 4.125 3.95833 5.625 3.95833C6.78 3.95833 7.905 4.75 8.3025 5.82667H9.6975C10.095 4.75 11.22 3.95833 12.375 3.95833C13.875 3.95833 15 5.14583 15 6.72917C15 9.01708 12.645 11.2733 9.075 14.6854ZM12.375 2.375C11.07 2.375 9.8175 3.01625 9 4.02167C8.1825 3.01625 6.93 2.375 5.625 2.375C3.315 2.375 1.5 4.28292 1.5 6.72917C1.5 9.71375 4.05 12.16 7.9125 15.8571L9 16.9021L10.0875 15.8571C13.95 12.16 16.5 9.71375 16.5 6.72917C16.5 4.28292 14.685 2.375 12.375 2.375Z" fill="black"/>
</svg>
