<svg width="21" height="19" viewBox="0 0 21 19" fill="none" xmlns="http://www.w3.org/2000/svg">
<path d="M20.4919 3.85532C20.1661 3.10088 19.6963 2.41721 19.1088 1.84259C18.5208 1.26625 17.8276 0.808247 17.0669 0.493476C16.278 0.165783 15.4319 -0.00194901 14.5777 1.7086e-05C13.3793 1.7086e-05 12.2101 0.32818 11.194 0.948042C10.9509 1.09632 10.72 1.25919 10.5012 1.43664C10.2824 1.25919 10.0515 1.09632 9.80842 0.948042C8.79233 0.32818 7.6231 1.7086e-05 6.42469 1.7086e-05C5.56175 1.7086e-05 4.72554 0.165314 3.93552 0.493476C3.17224 0.809485 2.48431 1.26405 1.89362 1.84259C1.30535 2.41656 0.835424 3.10039 0.510475 3.85532C0.172589 4.64048 0 5.47426 0 6.33234C0 7.14181 0.165297 7.98531 0.493459 8.84339C0.768144 9.56049 1.16194 10.3043 1.66512 11.0554C2.46243 12.2441 3.55874 13.4839 4.92001 14.7406C7.17582 16.8238 9.40976 18.2629 9.50456 18.3212L10.0807 18.6907C10.3359 18.8536 10.6641 18.8536 10.9193 18.6907L11.4954 18.3212C11.5902 18.2604 13.8217 16.8238 16.08 14.7406C17.4412 13.4839 18.5375 12.2441 19.3349 11.0554C19.838 10.3043 20.2343 9.56049 20.5065 8.84339C20.8347 7.98531 21 7.14181 21 6.33234C21.0024 5.47426 20.8298 4.64048 20.4919 3.85532ZM10.5012 16.7679C10.5012 16.7679 1.84743 11.2232 1.84743 6.33234C1.84743 3.85532 3.89663 1.84745 6.42469 1.84745C8.20163 1.84745 9.74278 2.83923 10.5012 4.28801C11.2596 2.83923 12.8008 1.84745 14.5777 1.84745C17.1058 1.84745 19.155 3.85532 19.155 6.33234C19.155 11.2232 10.5012 16.7679 10.5012 16.7679Z" fill="#F44C0F"/>
</svg>
