<svg width="27" height="29" viewBox="0 0 27 29" fill="none" xmlns="http://www.w3.org/2000/svg">
<path d="M4.47419 11.89C4.51944 11.2844 4.77541 10.7193 5.19112 10.3073C5.60683 9.89528 6.15178 9.66656 6.71744 9.66669H20.2827C20.8483 9.66656 21.3933 9.89528 21.809 10.3073C22.2247 10.7193 22.4807 11.2844 22.5259 11.89L23.4293 23.9734C23.4542 24.3059 23.4146 24.6403 23.3132 24.9556C23.2118 25.271 23.0508 25.5603 22.8402 25.8055C22.6295 26.0507 22.3739 26.2463 22.0895 26.3802C21.805 26.5141 21.4978 26.5833 21.1872 26.5834H5.81294C5.50235 26.5833 5.19514 26.5141 4.91066 26.3802C4.62618 26.2463 4.37059 26.0507 4.15997 25.8055C3.94935 25.5603 3.78827 25.271 3.68688 24.9556C3.58548 24.6403 3.54596 24.3059 3.57081 23.9734L4.47419 11.89V11.89Z" stroke="black" stroke-width="2" stroke-linecap="round" stroke-linejoin="round"/>
<path d="M18 13.2917V7.25002C18 5.96814 17.5259 4.73876 16.682 3.83234C15.8381 2.92591 14.6935 2.41669 13.5 2.41669C12.3065 2.41669 11.1619 2.92591 10.318 3.83234C9.47411 4.73876 9 5.96814 9 7.25002V13.2917" stroke="black" stroke-width="2" stroke-linecap="round" stroke-linejoin="round"/>
</svg>
