<svg width="26" height="24" viewBox="0 0 26 24" fill="none" xmlns="http://www.w3.org/2000/svg">
<path d="M4.79664 9.56232V7.38232C4.79664 6.00306 5.37994 4.68029 6.4182 3.70501C7.45647 2.72972 8.86466 2.18182 10.333 2.18182C11.8013 2.18182 13.2095 2.72972 14.2478 3.70501C15.286 4.68029 15.8693 6.00306 15.8693 7.38232V9.56232M2.97621 9.56232H17.6994C17.9674 9.56258 18.2244 9.66279 18.4138 9.84092C18.6032 10.019 18.7096 10.2605 18.7096 10.5123V20.7323C18.7096 20.9842 18.6032 21.2257 18.4136 21.4039C18.2241 21.582 17.967 21.6822 17.6988 21.6823H2.97674C2.70852 21.6823 2.45128 21.5822 2.26161 21.4041C2.07195 21.2259 1.96539 20.9843 1.96539 20.7323V10.5123C1.96539 10.2604 2.07195 10.0187 2.26161 9.84056C2.45128 9.66241 2.70852 9.56232 2.97674 9.56232H2.97621Z" stroke="black" stroke-linecap="round" stroke-linejoin="round"/>
</svg>
