<svg width="20" height="20" viewBox="0 0 20 20" fill="none" xmlns="http://www.w3.org/2000/svg">
<g clip-path="url(#clip0_260_44)">
<path d="M2.5 6.25V18.75C2.5 19.4375 3.0625 20 3.75 20H15C15.6875 20 16.25 19.4375 16.25 18.75V6.25H2.5ZM6.25 17.5H5V8.75H6.25V17.5ZM8.75 17.5H7.5V8.75H8.75V17.5ZM11.25 17.5H10V8.75H11.25V17.5ZM13.75 17.5H12.5V8.75H13.75V17.5ZM16.5625 2.5H12.5V0.9375C12.499 0.689164 12.3999 0.45128 12.2243 0.275678C12.0487 0.100077 11.8108 0.000987433 11.5625 0L7.1875 0C6.93916 0.000987433 6.70128 0.100077 6.52568 0.275678C6.35008 0.45128 6.25099 0.689164 6.25 0.9375V2.5H2.1875C1.93906 2.50066 1.70099 2.59964 1.52532 2.77532C1.34964 2.95099 1.25066 3.18906 1.25 3.4375V5H17.5V3.4375C17.4993 3.18906 17.4004 2.95099 17.2247 2.77532C17.049 2.59964 16.8109 2.50066 16.5625 2.5ZM11.25 2.5H7.5V1.26625H11.25V2.5Z" fill="black"/>
</g>
<defs>
<clipPath id="clip0_260_44">
<rect width="20" height="20" fill="white"/>
</clipPath>
</defs>
</svg>
