<svg width="85" height="11" viewBox="0 0 85 11" fill="none" xmlns="http://www.w3.org/2000/svg">
<path d="M12.5798 3.77125L8.68268 3.28263L6.94055 0.235707C6.89297 0.152285 6.81469 0.0847519 6.71799 0.0437026C6.47547 -0.0595828 6.18077 0.0264883 6.05951 0.235707L4.31738 3.28263L0.420236 3.77125C0.312792 3.78449 0.214557 3.82818 0.139346 3.89439C0.0484205 3.97502 -0.00168366 4.08349 4.32016e-05 4.19596C0.00177006 4.30844 0.0551867 4.41572 0.148556 4.49424L2.96819 6.86583L2.30204 10.2147C2.28642 10.2926 2.29641 10.3727 2.33088 10.4459C2.36536 10.5192 2.42293 10.5826 2.49708 10.6291C2.57123 10.6756 2.65898 10.7032 2.75039 10.7088C2.8418 10.7144 2.9332 10.6978 3.01424 10.6609L6.50003 9.07985L9.98582 10.6609C10.081 10.7046 10.1915 10.7192 10.2974 10.7033C10.5645 10.6636 10.7441 10.4451 10.698 10.2147L10.0319 6.86583L12.8515 4.49424C12.9283 4.42936 12.9789 4.34461 12.9943 4.25192C13.0357 4.02019 12.8484 3.80567 12.5798 3.77125ZM8.84538 6.53214L9.39948 9.31688L6.50003 8.0033L3.60058 9.3182L4.15468 6.53347L1.80933 4.56045L5.05107 4.15393L6.50003 1.62079L7.94899 4.15393L11.1907 4.56045L8.84538 6.53214Z" fill="#FFD233"/>
<path d="M84.5798 3.77125L80.6827 3.28263L78.9406 0.235707C78.893 0.152285 78.8147 0.0847519 78.718 0.0437026C78.4755 -0.0595828 78.1808 0.0264883 78.0595 0.235707L76.3174 3.28263L72.4202 3.77125C72.3128 3.78449 72.2146 3.82818 72.1393 3.89439C72.0484 3.97502 71.9983 4.08349 72 4.19596C72.0018 4.30844 72.0552 4.41572 72.1486 4.49424L74.9682 6.86583L74.302 10.2147C74.2864 10.2926 74.2964 10.3727 74.3309 10.4459C74.3654 10.5192 74.4229 10.5826 74.4971 10.6291C74.5712 10.6756 74.659 10.7032 74.7504 10.7088C74.8418 10.7144 74.9332 10.6978 75.0142 10.6609L78.5 9.07985L81.9858 10.6609C82.081 10.7046 82.1915 10.7192 82.2974 10.7033C82.5645 10.6636 82.7441 10.4451 82.698 10.2147L82.0319 6.86583L84.8515 4.49424C84.9283 4.42936 84.9789 4.34461 84.9943 4.25192C85.0357 4.02019 84.8484 3.80567 84.5798 3.77125ZM80.8454 6.53214L81.3995 9.31688L78.5 8.0033L75.6006 9.3182L76.1547 6.53347L73.8093 4.56045L77.0511 4.15393L78.5 1.62079L79.949 4.15393L83.1907 4.56045L80.8454 6.53214Z" fill="#FFD233"/>
<path d="M66.5798 3.77125L62.6827 3.28263L60.9406 0.235707C60.893 0.152285 60.8147 0.0847519 60.718 0.0437026C60.4755 -0.0595828 60.1808 0.0264883 60.0595 0.235707L58.3174 3.28263L54.4202 3.77125C54.3128 3.78449 54.2146 3.82818 54.1393 3.89439C54.0484 3.97502 53.9983 4.08349 54 4.19596C54.0018 4.30844 54.0552 4.41572 54.1486 4.49424L56.9682 6.86583L56.302 10.2147C56.2864 10.2926 56.2964 10.3727 56.3309 10.4459C56.3654 10.5192 56.4229 10.5826 56.4971 10.6291C56.5712 10.6756 56.659 10.7032 56.7504 10.7088C56.8418 10.7144 56.9332 10.6978 57.0142 10.6609L60.5 9.07985L63.9858 10.6609C64.081 10.7046 64.1915 10.7192 64.2974 10.7033C64.5645 10.6636 64.7441 10.4451 64.698 10.2147L64.0319 6.86583L66.8515 4.49424C66.9283 4.42936 66.9789 4.34461 66.9943 4.25192C67.0357 4.02019 66.8484 3.80567 66.5798 3.77125ZM62.8454 6.53214L63.3995 9.31688L60.5 8.0033L57.6006 9.3182L58.1547 6.53347L55.8093 4.56045L59.0511 4.15393L60.5 1.62079L61.949 4.15393L65.1907 4.56045L62.8454 6.53214Z" fill="#FFD233"/>
<path d="M48.5798 3.77125L44.6827 3.28263L42.9406 0.235707C42.893 0.152285 42.8147 0.0847519 42.718 0.0437026C42.4755 -0.0595828 42.1808 0.0264883 42.0595 0.235707L40.3174 3.28263L36.4202 3.77125C36.3128 3.78449 36.2146 3.82818 36.1393 3.89439C36.0484 3.97502 35.9983 4.08349 36 4.19596C36.0018 4.30844 36.0552 4.41572 36.1486 4.49424L38.9682 6.86583L38.302 10.2147C38.2864 10.2926 38.2964 10.3727 38.3309 10.4459C38.3654 10.5192 38.4229 10.5826 38.4971 10.6291C38.5712 10.6756 38.659 10.7032 38.7504 10.7088C38.8418 10.7144 38.9332 10.6978 39.0142 10.6609L42.5 9.07985L45.9858 10.6609C46.081 10.7046 46.1915 10.7192 46.2974 10.7033C46.5645 10.6636 46.7441 10.4451 46.698 10.2147L46.0319 6.86583L48.8515 4.49424C48.9283 4.42936 48.9789 4.34461 48.9943 4.25192C49.0357 4.02019 48.8484 3.80567 48.5798 3.77125ZM44.8454 6.53214L45.3995 9.31688L42.5 8.0033L39.6006 9.3182L40.1547 6.53347L37.8093 4.56045L41.0511 4.15393L42.5 1.62079L43.949 4.15393L47.1907 4.56045L44.8454 6.53214Z" fill="#FFD233"/>
<path d="M30.5798 3.77125L26.6827 3.28263L24.9406 0.235707C24.893 0.152285 24.8147 0.0847519 24.718 0.0437026C24.4755 -0.0595828 24.1808 0.0264883 24.0595 0.235707L22.3174 3.28263L18.4202 3.77125C18.3128 3.78449 18.2146 3.82818 18.1393 3.89439C18.0484 3.97502 17.9983 4.08349 18 4.19596C18.0018 4.30844 18.0552 4.41572 18.1486 4.49424L20.9682 6.86583L20.302 10.2147C20.2864 10.2926 20.2964 10.3727 20.3309 10.4459C20.3654 10.5192 20.4229 10.5826 20.4971 10.6291C20.5712 10.6756 20.659 10.7032 20.7504 10.7088C20.8418 10.7144 20.9332 10.6978 21.0142 10.6609L24.5 9.07985L27.9858 10.6609C28.081 10.7046 28.1915 10.7192 28.2974 10.7033C28.5645 10.6636 28.7441 10.4451 28.698 10.2147L28.0319 6.86583L30.8515 4.49424C30.9283 4.42936 30.9789 4.34461 30.9943 4.25192C31.0357 4.02019 30.8484 3.80567 30.5798 3.77125ZM26.8454 6.53214L27.3995 9.31688L24.5 8.0033L21.6006 9.3182L22.1547 6.53347L19.8093 4.56045L23.0511 4.15393L24.5 1.62079L25.949 4.15393L29.1907 4.56045L26.8454 6.53214Z" fill="#FFD233"/>
</svg>
