<svg width="24" height="22" viewBox="0 0 24 22" fill="none" xmlns="http://www.w3.org/2000/svg">
<path d="M13.3 15.8583L8.70005 11.6417C8.60005 11.55 8.52938 11.4507 8.48805 11.3438C8.44605 11.2368 8.42505 11.1222 8.42505 11C8.42505 10.8778 8.44605 10.7632 8.48805 10.6562C8.52938 10.5493 8.60005 10.45 8.70005 10.3583L13.3 6.14167C13.4834 5.97361 13.7167 5.88958 14 5.88958C14.2834 5.88958 14.5167 5.97361 14.7 6.14167C14.8834 6.30972 14.975 6.52361 14.975 6.78333C14.975 7.04306 14.8834 7.25694 14.7 7.425L10.8 11L14.7 14.575C14.8834 14.7431 14.975 14.9569 14.975 15.2167C14.975 15.4764 14.8834 15.6903 14.7 15.8583C14.5167 16.0264 14.2834 16.1104 14 16.1104C13.7167 16.1104 13.4834 16.0264 13.3 15.8583Z" fill="black"/>
</svg>
