<svg width="17" height="17" viewBox="0 0 17 17" fill="none" xmlns="http://www.w3.org/2000/svg">
<path d="M8.50003 1.41669C7.56983 1.41669 6.64874 1.5999 5.78935 1.95587C4.92996 2.31184 4.1491 2.8336 3.49135 3.49135C2.16297 4.81973 1.41669 6.6214 1.41669 8.50002C1.4105 10.1357 1.97684 11.7219 3.01753 12.9838L1.60086 14.4004C1.50257 14.5 1.43599 14.6265 1.40952 14.7639C1.38305 14.9014 1.39787 15.0435 1.45211 15.1725C1.51094 15.3 1.60632 15.4071 1.72613 15.4802C1.84594 15.5534 1.98478 15.5893 2.12503 15.5834H8.50003C10.3786 15.5834 12.1803 14.8371 13.5087 13.5087C14.8371 12.1803 15.5834 10.3786 15.5834 8.50002C15.5834 6.6214 14.8371 4.81973 13.5087 3.49135C12.1803 2.16296 10.3786 1.41669 8.50003 1.41669ZM8.50003 14.1667H3.83211L4.49086 13.5079C4.62279 13.3752 4.69684 13.1957 4.69684 13.0086C4.69684 12.8214 4.62279 12.6419 4.49086 12.5092C3.56336 11.5827 2.98578 10.3633 2.85652 9.05875C2.72726 7.75418 3.05432 6.44515 3.78198 5.35468C4.50964 4.26421 5.59288 3.45977 6.84714 3.07842C8.10141 2.69706 9.44909 2.76238 10.6606 3.26325C11.8721 3.76412 12.8725 4.66955 13.4913 5.82528C14.11 6.981 14.309 8.31553 14.0542 9.60148C13.7993 10.8874 13.1065 12.0453 12.0938 12.8777C11.081 13.7101 9.81098 14.1657 8.50003 14.1667ZM10.625 7.79169H9.20836V6.37502C9.20836 6.18716 9.13373 6.00699 9.00089 5.87415C8.86806 5.74131 8.68789 5.66669 8.50003 5.66669C8.31217 5.66669 8.132 5.74131 7.99916 5.87415C7.86632 6.00699 7.79169 6.18716 7.79169 6.37502V7.79169H6.37503C6.18717 7.79169 6.007 7.86631 5.87416 7.99915C5.74132 8.13199 5.66669 8.31216 5.66669 8.50002C5.66669 8.68788 5.74132 8.86805 5.87416 9.00089C6.007 9.13373 6.18717 9.20835 6.37503 9.20835H7.79169V10.625C7.79169 10.8129 7.86632 10.993 7.99916 11.1259C8.132 11.2587 8.31217 11.3334 8.50003 11.3334C8.68789 11.3334 8.86806 11.2587 9.00089 11.1259C9.13373 10.993 9.20836 10.8129 9.20836 10.625V9.20835H10.625C10.8129 9.20835 10.9931 9.13373 11.1259 9.00089C11.2587 8.86805 11.3334 8.68788 11.3334 8.50002C11.3334 8.31216 11.2587 8.13199 11.1259 7.99915C10.9931 7.86631 10.8129 7.79169 10.625 7.79169Z" fill="black"/>
</svg>
