<svg width="138" height="22" viewBox="0 0 138 22" fill="none" xmlns="http://www.w3.org/2000/svg">
<path d="M20.4237 7.74683L14.0966 6.74311L11.2682 0.484186C11.1909 0.31282 11.0638 0.174096 10.9069 0.089773C10.5131 -0.122394 10.0347 0.0544119 9.83779 0.484186L7.0094 6.74311L0.682265 7.74683C0.507826 7.77403 0.34834 7.86379 0.226233 7.99979C0.0786122 8.16541 -0.00273347 8.38822 7.0139e-05 8.61927C0.00287375 8.85032 0.0895972 9.0707 0.241185 9.232L4.81895 14.1037L3.73743 20.9828C3.71207 21.1428 3.72829 21.3074 3.78426 21.4579C3.84023 21.6083 3.9337 21.7387 4.05408 21.8341C4.17446 21.9295 4.31693 21.9862 4.46534 21.9978C4.61374 22.0093 4.76214 21.9753 4.89371 21.8995L10.553 18.6517L16.2123 21.8995C16.3668 21.9892 16.5462 22.0191 16.7181 21.9865C17.1518 21.9049 17.4433 21.4561 17.3686 20.9828L16.287 14.1037L20.8648 9.232C20.9894 9.09871 21.0716 8.92462 21.0966 8.73422C21.1638 8.2582 20.8598 7.81755 20.4237 7.74683ZM14.3607 13.4182L15.2603 19.1386L10.553 16.4402L5.84564 19.1413L6.74525 13.4209L2.93751 9.368L8.20056 8.53293L10.553 3.3294L12.9054 8.53293L18.1685 9.368L14.3607 13.4182Z" fill="#FFD233"/>
<path d="M137.318 7.74683L130.991 6.74311L128.162 0.484186C128.085 0.31282 127.958 0.174096 127.801 0.089773C127.407 -0.122394 126.929 0.0544119 126.732 0.484186L123.904 6.74311L117.576 7.74683C117.402 7.77403 117.243 7.86379 117.12 7.99979C116.973 8.16541 116.891 8.38822 116.894 8.61927C116.897 8.85032 116.984 9.0707 117.135 9.232L121.713 14.1037L120.632 20.9828C120.606 21.1428 120.622 21.3074 120.678 21.4579C120.734 21.6083 120.828 21.7387 120.948 21.8341C121.069 21.9295 121.211 21.9862 121.36 21.9978C121.508 22.0093 121.656 21.9753 121.788 21.8995L127.447 18.6517L133.106 21.8995C133.261 21.9892 133.44 22.0191 133.612 21.9865C134.046 21.9049 134.337 21.4561 134.263 20.9828L133.181 14.1037L137.759 9.232C137.884 9.09871 137.966 8.92462 137.991 8.73422C138.058 8.2582 137.754 7.81755 137.318 7.74683ZM131.255 13.4182L132.155 19.1386L127.447 16.4402L122.74 19.1413L123.639 13.4209L119.832 9.368L125.095 8.53293L127.447 3.3294L129.8 8.53293L135.063 9.368L131.255 13.4182Z" fill="#FFD233"/>
<path d="M108.094 7.74683L101.767 6.74311L98.9388 0.484186C98.8616 0.31282 98.7345 0.174096 98.5775 0.089773C98.1838 -0.122394 97.7053 0.0544119 97.5084 0.484186L94.6801 6.74311L88.3529 7.74683C88.1785 7.77403 88.019 7.86379 87.8969 7.99979C87.7493 8.16541 87.6679 8.38822 87.6707 8.61927C87.6735 8.85032 87.7603 9.0707 87.9118 9.232L92.4896 14.1037L91.4081 20.9828C91.3827 21.1428 91.3989 21.3074 91.4549 21.4579C91.5109 21.6083 91.6044 21.7387 91.7247 21.8341C91.8451 21.9295 91.9876 21.9862 92.136 21.9978C92.2844 22.0093 92.4328 21.9753 92.5644 21.8995L98.2236 18.6517L103.883 21.8995C104.037 21.9892 104.217 22.0191 104.389 21.9865C104.822 21.9049 105.114 21.4561 105.039 20.9828L103.958 14.1037L108.535 9.232C108.66 9.09871 108.742 8.92462 108.767 8.73422C108.834 8.2582 108.53 7.81755 108.094 7.74683ZM102.031 13.4182L102.931 19.1386L98.2236 16.4402L93.5163 19.1413L94.4159 13.4209L90.6082 9.368L95.8712 8.53293L98.2236 3.3294L100.576 8.53293L105.839 9.368L102.031 13.4182Z" fill="#FFD233"/>
<path d="M78.8706 7.74683L72.5435 6.74311L69.7151 0.484186C69.6378 0.31282 69.5107 0.174096 69.3538 0.089773C68.96 -0.122394 68.4816 0.0544119 68.2847 0.484186L65.4563 6.74311L59.1292 7.74683C58.9547 7.77403 58.7952 7.86379 58.6731 7.99979C58.5255 8.16541 58.4442 8.38822 58.447 8.61927C58.4498 8.85032 58.5365 9.0707 58.6881 9.232L63.2658 14.1037L62.1843 20.9828C62.159 21.1428 62.1752 21.3074 62.2312 21.4579C62.2871 21.6083 62.3806 21.7387 62.501 21.8341C62.6214 21.9295 62.7638 21.9862 62.9122 21.9978C63.0606 22.0093 63.209 21.9753 63.3406 21.8995L68.9999 18.6517L74.6592 21.8995C74.8137 21.9892 74.9931 22.0191 75.165 21.9865C75.5987 21.9049 75.8902 21.4561 75.8155 20.9828L74.7339 14.1037L79.3117 9.232C79.4363 9.09871 79.5185 8.92462 79.5435 8.73422C79.6107 8.2582 79.3067 7.81755 78.8706 7.74683ZM72.8076 13.4182L73.7072 19.1386L68.9999 16.4402L64.2925 19.1413L65.1921 13.4209L61.3844 9.368L66.6475 8.53293L68.9999 3.3294L71.3523 8.53293L76.6154 9.368L72.8076 13.4182Z" fill="#FFD233"/>
<path d="M49.6472 7.74683L43.3201 6.74311L40.4917 0.484186C40.4144 0.31282 40.2874 0.174096 40.1304 0.089773C39.7366 -0.122394 39.2582 0.0544119 39.0613 0.484186L36.2329 6.74311L29.9058 7.74683C29.7313 7.77403 29.5719 7.86379 29.4497 7.99979C29.3021 8.16541 29.2208 8.38822 29.2236 8.61927C29.2264 8.85032 29.3131 9.0707 29.4647 9.232L34.0425 14.1037L32.9609 20.9828C32.9356 21.1428 32.9518 21.3074 33.0078 21.4579C33.0637 21.6083 33.1572 21.7387 33.2776 21.8341C33.398 21.9295 33.5404 21.9862 33.6888 21.9978C33.8373 22.0093 33.9857 21.9753 34.1172 21.8995L39.7765 18.6517L45.4358 21.8995C45.5903 21.9892 45.7697 22.0191 45.9417 21.9865C46.3753 21.9049 46.6668 21.4561 46.5921 20.9828L45.5105 14.1037L50.0883 9.232C50.2129 9.09871 50.2951 8.92462 50.3201 8.73422C50.3873 8.2582 50.0833 7.81755 49.6472 7.74683ZM43.5842 13.4182L44.4839 19.1386L39.7765 16.4402L35.0692 19.1413L35.9688 13.4209L32.161 9.368L37.4241 8.53293L39.7765 3.3294L42.1289 8.53293L47.392 9.368L43.5842 13.4182Z" fill="#FFD233"/>
</svg>
