<svg width="108" height="125" viewBox="0 0 108 125" fill="none" xmlns="http://www.w3.org/2000/svg">
<path d="M29.3726 29.9475L81.1616 43.8243L84.0744 32.9536C85.2881 28.4241 84.6413 24.1244 82.1342 20.0543C79.6271 15.9843 75.9759 13.3068 71.1806 12.0219C66.3853 10.737 61.8845 11.2302 57.6783 13.5014C53.472 15.7726 50.7621 19.1729 49.5484 23.7024L38.0397 20.6187C40.0544 13.0997 44.5782 7.44157 51.6111 3.64413C58.6391 -0.150723 66.1332 -0.981689 74.0934 1.15123C82.0535 3.28415 88.1301 7.75135 92.323 14.5528C96.511 21.3569 97.5977 28.5184 95.5831 36.0373L92.6703 46.908L98.4246 48.4499C101.589 49.2979 104.015 51.0877 105.701 53.8191C107.382 56.5532 107.821 59.4149 107.02 62.4043L92.4565 116.758C91.6554 119.747 89.8436 122.006 87.0208 123.533C84.1951 125.056 81.1999 125.393 78.035 124.545L8.98304 106.042C5.81816 105.194 3.39475 103.405 1.71283 100.675C0.0280402 97.9397 -0.413843 95.0774 0.387177 92.088L14.9512 37.7345C15.7522 34.745 17.566 32.4872 20.3926 30.9609C23.2144 29.4373 26.2077 29.0995 29.3726 29.9475ZM11.8958 95.1717L80.9478 113.674L95.5118 59.3206L26.4598 40.8182L11.8958 95.1717ZM50.791 88.1169C53.9559 88.9649 56.9512 88.6276 59.7768 87.105C62.5996 85.5777 64.4115 83.3193 65.2125 80.3299C66.0135 77.3405 65.5735 74.4787 63.8926 71.7447C62.2068 69.0132 59.7815 67.2235 56.6166 66.3755C53.4517 65.5274 50.4584 65.8652 47.6366 67.3889C44.81 68.9151 42.9962 71.173 42.1952 74.1624C41.3941 77.1519 41.836 80.0141 43.5208 82.7492C45.2027 85.4796 47.6261 87.2688 50.791 88.1169ZM11.8958 95.1717L26.4598 40.8182L11.8958 95.1717Z" fill="black"/>
</svg>
