<svg width="18" height="19" viewBox="0 0 18 19" fill="none" xmlns="http://www.w3.org/2000/svg">
<path d="M11.9998 15C11.9998 15.7956 11.6838 16.5587 11.1212 17.1213C10.5586 17.6839 9.7955 18 8.99985 18C8.2042 18 7.44114 17.6839 6.87853 17.1213C6.31593 16.5587 5.99986 15.7956 5.99986 15M9.72085 1.00302L8.25485 1.00002C4.91086 0.992016 2.00786 3.70901 1.98486 7.00001V10.79C1.98486 11.58 1.88486 12.351 1.45386 13.008L1.16686 13.446C0.729865 14.11 1.19986 15 1.98486 15H16.0148C16.7998 15 17.2688 14.11 16.8328 13.446L16.5458 13.008C16.1158 12.351 16.0148 11.579 16.0148 10.789V7.00101C15.9748 3.70901 13.0648 1.01102 9.72085 1.00302V1.00302Z" stroke="#F44C0F" stroke-width="2" stroke-linecap="round" stroke-linejoin="round"/>
</svg>
